<svg width="190" height="32" viewBox="0 0 190 32" fill="none" xmlns="http://www.w3.org/2000/svg">
<path d="M17.0205 21.0191C19.4608 17.8697 22.8394 9.70609 23.1932 3.40752C26.0931 2.53874 28.7204 1.9421 31.2667 2.23176C33.8528 8.14666 27.6223 22.7486 23.4407 23.2446C20.5855 23.5832 19.1071 23.4806 17.0205 21.0191Z" fill="#00478C"/>
<path d="M17.0205 21.0191C19.4608 17.8697 22.8394 9.70609 23.1932 3.40752C26.0931 2.53874 28.7204 1.9421 31.2667 2.23176C33.8528 8.14666 27.6223 22.7486 23.4407 23.2446C20.5855 23.5832 19.1071 23.4806 17.0205 21.0191Z" fill="url(#paint0_linear_327_4196)"/>
<path d="M17.0205 21.0191C19.4608 17.8697 22.8394 9.70609 23.1932 3.40752C26.0931 2.53874 28.7204 1.9421 31.2667 2.23176C33.8528 8.14666 27.6223 22.7486 23.4407 23.2446C20.5855 23.5832 19.1071 23.4806 17.0205 21.0191Z" fill="url(#paint1_linear_327_4196)"/>
<path d="M17.0205 21.0191C19.4608 17.8697 22.8394 9.70609 23.1932 3.40752C26.0931 2.53874 28.7204 1.9421 31.2667 2.23176C33.8528 8.14666 27.6223 22.7486 23.4407 23.2446C20.5855 23.5832 19.1071 23.4806 17.0205 21.0191Z" stroke="#00478C"/>
<path d="M0.536916 2.10468C-0.973893 11.9331 6.191 27.2994 16.2319 31.8894C20.5549 30.2743 24.8103 24.0066 24.8103 24.0066C24.8103 24.0066 18.222 26.8444 13.6971 18.868C9.8076 13.6056 8.43323 2.85309 8.43323 2.85309C8.43323 2.85309 3.42368 1.85565 0.536916 2.10468Z" fill="#0561BC"/>
<path d="M0.536916 2.10468C-0.973893 11.9331 6.191 27.2994 16.2319 31.8894C20.5549 30.2743 24.8103 24.0066 24.8103 24.0066C24.8103 24.0066 18.222 26.8444 13.6971 18.868C9.8076 13.6056 8.43323 2.85309 8.43323 2.85309C8.43323 2.85309 3.42368 1.85565 0.536916 2.10468Z" fill="url(#paint2_linear_327_4196)"/>
<path d="M0.536916 2.10468C-0.973893 11.9331 6.191 27.2994 16.2319 31.8894C20.5549 30.2743 24.8103 24.0066 24.8103 24.0066C24.8103 24.0066 18.222 26.8444 13.6971 18.868C9.8076 13.6056 8.43323 2.85309 8.43323 2.85309C8.43323 2.85309 3.42368 1.85565 0.536916 2.10468Z" fill="url(#paint3_linear_327_4196)"/>
<path d="M0.536916 2.10468C-0.973893 11.9331 6.191 27.2994 16.2319 31.8894C20.5549 30.2743 24.8103 24.0066 24.8103 24.0066C24.8103 24.0066 18.222 26.8444 13.6971 18.868C9.8076 13.6056 8.43323 2.85309 8.43323 2.85309C8.43323 2.85309 3.42368 1.85565 0.536916 2.10468Z" fill="url(#paint4_linear_327_4196)"/>
<path d="M0.536916 2.10468C-0.973893 11.9331 6.191 27.2994 16.2319 31.8894C20.5549 30.2743 24.8103 24.0066 24.8103 24.0066C24.8103 24.0066 18.222 26.8444 13.6971 18.868C9.8076 13.6056 8.43323 2.85309 8.43323 2.85309C8.43323 2.85309 3.42368 1.85565 0.536916 2.10468Z" fill="url(#paint5_linear_327_4196)"/>
<path d="M0.536916 2.10468C-0.973893 11.9331 6.191 27.2994 16.2319 31.8894C20.5549 30.2743 24.8103 24.0066 24.8103 24.0066C24.8103 24.0066 18.222 26.8444 13.6971 18.868C9.8076 13.6056 8.43323 2.85309 8.43323 2.85309C8.43323 2.85309 3.42368 1.85565 0.536916 2.10468Z" fill="url(#paint6_linear_327_4196)"/>
<path d="M0.536916 2.10468C-0.973893 11.9331 6.191 27.2994 16.2319 31.8894C20.5549 30.2743 24.8103 24.0066 24.8103 24.0066C24.8103 24.0066 18.222 26.8444 13.6971 18.868C9.8076 13.6056 8.43323 2.85309 8.43323 2.85309C8.43323 2.85309 3.42368 1.85565 0.536916 2.10468Z" fill="url(#paint7_linear_327_4196)"/>
<path d="M0.536916 2.10468C-0.973893 11.9331 6.191 27.2994 16.2319 31.8894C20.5549 30.2743 24.8103 24.0066 24.8103 24.0066C24.8103 24.0066 18.222 26.8444 13.6971 18.868C9.8076 13.6056 8.43323 2.85309 8.43323 2.85309C8.43323 2.85309 3.42368 1.85565 0.536916 2.10468Z" fill="url(#paint8_linear_327_4196)"/>
<path d="M0.536916 2.10468C-0.973893 11.9331 6.191 27.2994 16.2319 31.8894C20.5549 30.2743 24.8103 24.0066 24.8103 24.0066C24.8103 24.0066 18.222 26.8444 13.6971 18.868C9.8076 13.6056 8.43323 2.85309 8.43323 2.85309C8.43323 2.85309 3.42368 1.85565 0.536916 2.10468Z" stroke="#00478C"/>
<path d="M36.7 6.825H41.5V26H36.7V6.825ZM62.4775 6.825V10.775H49.5525V14.6H58.1025V18.225H49.5525V22.025H62.7275V26H44.9275V6.825H62.4775ZM84.7492 6.825V10.575H77.7742V26H72.9492V10.575H65.8992V6.825H84.7492ZM106.124 11.2C101.474 9.8 96.1238 9.35 92.6988 10.925C92.0238 11.3 91.6238 11.775 91.5238 12.525C91.5238 12.9 91.5738 13.2 91.7488 13.375C92.0238 13.7 92.4738 13.85 92.8738 13.925C94.6238 14.3 96.2988 14.275 98.2238 14.35H99.8488C101.899 14.45 103.899 14.725 105.524 15.475C107.449 16.45 108.849 18 108.624 20.425C108.074 24.8 103.974 26.35 98.8988 26.35C94.0738 26.35 91.2488 25.9 87.0988 24.225L87.6488 20.425C91.9488 22.45 97.0238 23.275 101.099 22.375C102.324 22.1 103.549 21.55 103.724 20.15C103.824 19.3 103.349 18.825 102.824 18.625C102.049 18.2 100.849 18.075 99.5238 18H98.0488C96.5738 17.9 95.0988 17.85 93.4988 17.625C91.4738 17.425 89.3488 17 88.0238 15.6C87.0988 14.75 86.6238 13.65 86.7988 12.325C86.8988 10.225 88.3738 8.375 90.2738 7.5C92.6488 6.275 98.1238 5.75 102.124 6.4C103.799 6.675 105.324 6.875 107.524 7.6L106.124 11.2ZM130.916 6.825V10.575H123.941V26H119.116V10.575H112.066V6.825H130.916ZM134.307 6.825H145.157C147.257 6.825 149.157 7.5 150.557 8.625C151.957 10.225 152.757 11.475 152.757 12.925C152.757 14.375 151.957 15.675 150.557 17.2C149.782 17.85 148.807 18.35 147.757 18.675L153.082 26H148.107L142.982 18.95H139.032V26H134.307V6.825ZM139.032 10.575V15.25H145.157C146.007 15.25 146.907 15.025 147.582 14.575C148.232 14.1 148.532 13.575 148.532 12.925C148.532 12.275 148.232 11.75 147.582 11.3C146.932 10.85 146.107 10.575 145.157 10.575H139.032ZM156.5 6.825H161.3V26H156.5V6.825ZM163.477 26.025L170.527 15.85L163.527 6.85H168.752L173.177 12.625L177.477 6.85H182.802L175.702 15.85L182.752 26.025H177.777L173.177 19.125L168.552 26.025H163.477Z" fill="black"/>
<defs>
<linearGradient id="paint0_linear_327_4196" x1="19.2033" y1="11.2171" x2="30.5281" y2="13.739" gradientUnits="userSpaceOnUse">
<stop stop-color="#34465A"/>
<stop offset="1" stop-color="#692440"/>
</linearGradient>
<linearGradient id="paint1_linear_327_4196" x1="19.2033" y1="11.2171" x2="30.5281" y2="13.739" gradientUnits="userSpaceOnUse">
<stop stop-color="#0077B9"/>
<stop offset="1" stop-color="#013162"/>
</linearGradient>
<linearGradient id="paint2_linear_327_4196" x1="0.18476" y1="16.8628" x2="24.8953" y2="17.1703" gradientUnits="userSpaceOnUse">
<stop stop-color="#37051D"/>
<stop offset="1" stop-color="#85A0F4"/>
</linearGradient>
<linearGradient id="paint3_linear_327_4196" x1="0.18476" y1="16.8628" x2="24.8953" y2="17.1703" gradientUnits="userSpaceOnUse">
<stop stop-color="#03AADD"/>
<stop offset="1" stop-color="#ADE1FF"/>
</linearGradient>
<linearGradient id="paint4_linear_327_4196" x1="0.18476" y1="16.8628" x2="24.8953" y2="17.1703" gradientUnits="userSpaceOnUse">
<stop stop-color="#002060"/>
<stop offset="1" stop-color="#402060"/>
</linearGradient>
<linearGradient id="paint5_linear_327_4196" x1="0.18476" y1="16.8628" x2="24.8953" y2="17.1703" gradientUnits="userSpaceOnUse">
<stop stop-color="#1500FF"/>
<stop offset="1"/>
</linearGradient>
<linearGradient id="paint6_linear_327_4196" x1="0.18476" y1="16.8628" x2="24.8953" y2="17.1703" gradientUnits="userSpaceOnUse">
<stop stop-color="#040254"/>
<stop offset="1" stop-color="#43F9E6"/>
</linearGradient>
<linearGradient id="paint7_linear_327_4196" x1="0.18476" y1="16.8628" x2="24.8953" y2="17.1703" gradientUnits="userSpaceOnUse">
<stop stop-color="#7E7AF5"/>
<stop offset="1" stop-color="#051B2D"/>
</linearGradient>
<linearGradient id="paint8_linear_327_4196" x1="0.18476" y1="16.8628" x2="24.8953" y2="17.1703" gradientUnits="userSpaceOnUse">
<stop stop-color="#0077B9"/>
<stop offset="1" stop-color="#013162"/>
</linearGradient>
</defs>
</svg>
