<svg width="190" height="33" viewBox="0 0 190 33" fill="none" xmlns="http://www.w3.org/2000/svg">
<path d="M17.0185 21.5191C19.4588 18.3697 22.8374 10.2061 23.1912 3.90752C26.0912 3.03874 28.7185 2.4421 31.2648 2.73176C33.8508 8.64666 27.6203 23.2486 23.4387 23.7446C20.5835 24.0832 19.1052 23.9806 17.0185 21.5191Z" fill="url(#paint0_linear_374_3329)"/>
<path d="M0.534963 2.60468C-0.975847 12.4331 6.18905 27.7994 16.2299 32.3894C20.5529 30.7743 24.8083 24.5066 24.8083 24.5066C24.8083 24.5066 18.2201 27.3444 13.6952 19.368C9.80564 14.1056 8.43128 3.35309 8.43128 3.35309C8.43128 3.35309 3.42173 2.35565 0.534963 2.60468Z" fill="#0561BC"/>
<path d="M0.534963 2.60468C-0.975847 12.4331 6.18905 27.7994 16.2299 32.3894C20.5529 30.7743 24.8083 24.5066 24.8083 24.5066C24.8083 24.5066 18.2201 27.3444 13.6952 19.368C9.80564 14.1056 8.43128 3.35309 8.43128 3.35309C8.43128 3.35309 3.42173 2.35565 0.534963 2.60468Z" fill="url(#paint1_linear_374_3329)"/>
<path d="M0.534963 2.60468C-0.975847 12.4331 6.18905 27.7994 16.2299 32.3894C20.5529 30.7743 24.8083 24.5066 24.8083 24.5066C24.8083 24.5066 18.2201 27.3444 13.6952 19.368C9.80564 14.1056 8.43128 3.35309 8.43128 3.35309C8.43128 3.35309 3.42173 2.35565 0.534963 2.60468Z" stroke="#00478C"/>
<path d="M36.7 7.325H41.5V26.5H36.7V7.325ZM62.4775 7.325V11.275H49.5525V15.1H58.1025V18.725H49.5525V22.525H62.7275V26.5H44.9275V7.325H62.4775ZM84.7492 7.325V11.075H77.7742V26.5H72.9492V11.075H65.8992V7.325H84.7492ZM106.124 11.7C101.474 10.3 96.1238 9.85 92.6988 11.425C92.0238 11.8 91.6238 12.275 91.5238 13.025C91.5238 13.4 91.5738 13.7 91.7488 13.875C92.0238 14.2 92.4738 14.35 92.8738 14.425C94.6238 14.8 96.2988 14.775 98.2238 14.85H99.8488C101.899 14.95 103.899 15.225 105.524 15.975C107.449 16.95 108.849 18.5 108.624 20.925C108.074 25.3 103.974 26.85 98.8988 26.85C94.0738 26.85 91.2488 26.4 87.0988 24.725L87.6488 20.925C91.9488 22.95 97.0238 23.775 101.099 22.875C102.324 22.6 103.549 22.05 103.724 20.65C103.824 19.8 103.349 19.325 102.824 19.125C102.049 18.7 100.849 18.575 99.5238 18.5H98.0488C96.5738 18.4 95.0988 18.35 93.4988 18.125C91.4738 17.925 89.3488 17.5 88.0238 16.1C87.0988 15.25 86.6238 14.15 86.7988 12.825C86.8988 10.725 88.3738 8.875 90.2738 8C92.6488 6.775 98.1238 6.25 102.124 6.9C103.799 7.175 105.324 7.375 107.524 8.1L106.124 11.7ZM130.916 7.325V11.075H123.941V26.5H119.116V11.075H112.066V7.325H130.916ZM134.307 7.325H145.157C147.257 7.325 149.157 8 150.557 9.125C151.957 10.725 152.757 11.975 152.757 13.425C152.757 14.875 151.957 16.175 150.557 17.7C149.782 18.35 148.807 18.85 147.757 19.175L153.082 26.5H148.107L142.982 19.45H139.032V26.5H134.307V7.325ZM139.032 11.075V15.75H145.157C146.007 15.75 146.907 15.525 147.582 15.075C148.232 14.6 148.532 14.075 148.532 13.425C148.532 12.775 148.232 12.25 147.582 11.8C146.932 11.35 146.107 11.075 145.157 11.075H139.032ZM156.5 7.325H161.3V26.5H156.5V7.325ZM163.477 26.525L170.527 16.35L163.527 7.35H168.752L173.177 13.125L177.477 7.35H182.802L175.702 16.35L182.752 26.525H177.777L173.177 19.625L168.552 26.525H163.477Z" fill="white"/>
<defs>
<linearGradient id="paint0_linear_374_3329" x1="27.3489" y1="1.81814" x2="22.1271" y2="24.1996" gradientUnits="userSpaceOnUse">
<stop stop-color="#00A4FF"/>
<stop offset="1" stop-color="#00468D"/>
</linearGradient>
<linearGradient id="paint1_linear_374_3329" x1="0.182807" y1="17.3628" x2="24.8934" y2="17.6703" gradientUnits="userSpaceOnUse">
<stop stop-color="#02A5FF"/>
<stop offset="1" stop-color="#00468D"/>
</linearGradient>
</defs>
</svg>
