<svg width="1080" height="1080" viewBox="0 0 1080 1080" fill="none" xmlns="http://www.w3.org/2000/svg">
<rect width="1080" height="1080" fill="white"/>
<path d="M27.5 481.326L60.1854 431.951L155.265 589.901L185.287 540.138L244.721 431.951L187.651 431.951L155.265 488.203L216.087 590.888L185.287 648.049H123.208L27.5 481.326Z" fill="url(#paint0_linear_706_3565)"/>
<path d="M276.182 487.699V615.668H249.902V487.699H276.182ZM386.748 595.102V615.668H318.633V595.102H386.748ZM327.246 487.699V615.668H300.879V487.699H327.246ZM377.871 539.818V559.857H318.633V539.818H377.871ZM386.66 487.699V508.354H318.633V487.699H386.66ZM461.104 487.699V615.668H434.824V487.699H461.104ZM500.479 487.699V508.354H396.064V487.699H500.479ZM580.723 582.182C580.723 579.896 580.371 577.846 579.668 576.029C579.023 574.154 577.793 572.455 575.977 570.932C574.16 569.35 571.611 567.797 568.33 566.273C565.049 564.75 560.801 563.168 555.586 561.527C549.785 559.652 544.277 557.543 539.062 555.199C533.906 552.855 529.336 550.131 525.352 547.025C521.426 543.861 518.32 540.199 516.035 536.039C513.809 531.879 512.695 527.045 512.695 521.537C512.695 516.205 513.867 511.371 516.211 507.035C518.555 502.641 521.836 498.891 526.055 495.785C530.273 492.621 535.254 490.189 540.996 488.49C546.797 486.791 553.154 485.941 560.068 485.941C569.502 485.941 577.734 487.641 584.766 491.039C591.797 494.438 597.246 499.096 601.113 505.014C605.039 510.932 607.002 517.699 607.002 525.316H580.811C580.811 521.566 580.02 518.285 578.438 515.473C576.914 512.602 574.57 510.346 571.406 508.705C568.301 507.064 564.375 506.244 559.629 506.244C555.059 506.244 551.25 506.947 548.203 508.354C545.156 509.701 542.871 511.547 541.348 513.891C539.824 516.176 539.062 518.754 539.062 521.625C539.062 523.793 539.59 525.756 540.645 527.514C541.758 529.271 543.398 530.912 545.566 532.436C547.734 533.959 550.4 535.395 553.564 536.742C556.729 538.09 560.391 539.408 564.551 540.697C571.523 542.807 577.646 545.18 582.92 547.816C588.252 550.453 592.705 553.412 596.279 556.693C599.854 559.975 602.549 563.695 604.365 567.855C606.182 572.016 607.09 576.732 607.09 582.006C607.09 587.572 606.006 592.553 603.838 596.947C601.67 601.342 598.535 605.062 594.434 608.109C590.332 611.156 585.439 613.471 579.756 615.053C574.072 616.635 567.715 617.426 560.684 617.426C554.355 617.426 548.115 616.605 541.963 614.965C535.811 613.266 530.215 610.717 525.176 607.318C520.195 603.92 516.211 599.584 513.223 594.311C510.234 589.037 508.74 582.797 508.74 575.59H535.195C535.195 579.574 535.811 582.943 537.041 585.697C538.271 588.451 540 590.678 542.227 592.377C544.512 594.076 547.207 595.307 550.312 596.068C553.477 596.83 556.934 597.211 560.684 597.211C565.254 597.211 569.004 596.566 571.934 595.277C574.922 593.988 577.119 592.201 578.525 589.916C579.99 587.631 580.723 585.053 580.723 582.182ZM682.236 487.699V615.668H655.957V487.699H682.236ZM721.611 487.699V508.354H617.197V487.699H721.611ZM736.641 487.699H784.365C794.15 487.699 802.559 489.164 809.59 492.094C816.68 495.023 822.129 499.359 825.938 505.102C829.746 510.844 831.65 517.904 831.65 526.283C831.65 533.139 830.479 539.027 828.135 543.949C825.85 548.812 822.598 552.885 818.379 556.166C814.219 559.389 809.326 561.967 803.701 563.9L795.352 568.295H753.867L753.691 547.729H784.541C789.17 547.729 793.008 546.908 796.055 545.268C799.102 543.627 801.387 541.342 802.91 538.412C804.492 535.482 805.283 532.084 805.283 528.217C805.283 524.115 804.521 520.57 802.998 517.582C801.475 514.594 799.16 512.309 796.055 510.727C792.949 509.145 789.053 508.354 784.365 508.354H763.008V615.668H736.641V487.699ZM808.184 615.668L779.004 558.627L806.865 558.451L836.396 614.438V615.668H808.184ZM879.99 487.699V615.668H853.711V487.699H879.99ZM927.979 487.699L952.061 532.348L976.143 487.699H1006.29L969.111 551.156L1007.26 615.668H976.846L952.061 570.141L927.275 615.668H896.689L934.922 551.156L897.656 487.699H927.979Z" fill="black"/>
<defs>
<linearGradient id="paint0_linear_706_3565" x1="26.1614" y1="539.172" x2="245.459" y2="542.515" gradientUnits="userSpaceOnUse">
<stop stop-color="#02A5FF"/>
<stop offset="1" stop-color="#00468D"/>
</linearGradient>
</defs>
</svg>
