<svg width="1081" height="1081" viewBox="0 0 1081 1081" fill="none" xmlns="http://www.w3.org/2000/svg">
<circle cx="540.418" cy="540.5" r="540" fill="white"/>
<path d="M27.918 481.826L60.6034 432.451L155.683 590.401L185.705 540.638L245.139 432.451L188.069 432.451L155.683 488.703L216.505 591.388L185.705 648.549H123.626L27.918 481.826Z" fill="url(#paint0_linear_706_3625)"/>
<path d="M276.6 488.199V616.168H250.32V488.199H276.6ZM387.166 595.602V616.168H319.051V595.602H387.166ZM327.664 488.199V616.168H301.297V488.199H327.664ZM378.289 540.318V560.357H319.051V540.318H378.289ZM387.078 488.199V508.854H319.051V488.199H387.078ZM461.521 488.199V616.168H435.242V488.199H461.521ZM500.896 488.199V508.854H396.482V488.199H500.896ZM581.141 582.682C581.141 580.396 580.789 578.346 580.086 576.529C579.441 574.654 578.211 572.955 576.395 571.432C574.578 569.85 572.029 568.297 568.748 566.773C565.467 565.25 561.219 563.668 556.004 562.027C550.203 560.152 544.695 558.043 539.48 555.699C534.324 553.355 529.754 550.631 525.77 547.525C521.844 544.361 518.738 540.699 516.453 536.539C514.227 532.379 513.113 527.545 513.113 522.037C513.113 516.705 514.285 511.871 516.629 507.535C518.973 503.141 522.254 499.391 526.473 496.285C530.691 493.121 535.672 490.689 541.414 488.99C547.215 487.291 553.572 486.441 560.486 486.441C569.92 486.441 578.152 488.141 585.184 491.539C592.215 494.938 597.664 499.596 601.531 505.514C605.457 511.432 607.42 518.199 607.42 525.816H581.229C581.229 522.066 580.438 518.785 578.855 515.973C577.332 513.102 574.988 510.846 571.824 509.205C568.719 507.564 564.793 506.744 560.047 506.744C555.477 506.744 551.668 507.447 548.621 508.854C545.574 510.201 543.289 512.047 541.766 514.391C540.242 516.676 539.48 519.254 539.48 522.125C539.48 524.293 540.008 526.256 541.062 528.014C542.176 529.771 543.816 531.412 545.984 532.936C548.152 534.459 550.818 535.895 553.982 537.242C557.146 538.59 560.809 539.908 564.969 541.197C571.941 543.307 578.064 545.68 583.338 548.316C588.67 550.953 593.123 553.912 596.697 557.193C600.271 560.475 602.967 564.195 604.783 568.355C606.6 572.516 607.508 577.232 607.508 582.506C607.508 588.072 606.424 593.053 604.256 597.447C602.088 601.842 598.953 605.562 594.852 608.609C590.75 611.656 585.857 613.971 580.174 615.553C574.49 617.135 568.133 617.926 561.102 617.926C554.773 617.926 548.533 617.105 542.381 615.465C536.229 613.766 530.633 611.217 525.594 607.818C520.613 604.42 516.629 600.084 513.641 594.811C510.652 589.537 509.158 583.297 509.158 576.09H535.613C535.613 580.074 536.229 583.443 537.459 586.197C538.689 588.951 540.418 591.178 542.645 592.877C544.93 594.576 547.625 595.807 550.73 596.568C553.895 597.33 557.352 597.711 561.102 597.711C565.672 597.711 569.422 597.066 572.352 595.777C575.34 594.488 577.537 592.701 578.943 590.416C580.408 588.131 581.141 585.553 581.141 582.682ZM682.654 488.199V616.168H656.375V488.199H682.654ZM722.029 488.199V508.854H617.615V488.199H722.029ZM737.059 488.199H784.783C794.568 488.199 802.977 489.664 810.008 492.594C817.098 495.523 822.547 499.859 826.355 505.602C830.164 511.344 832.068 518.404 832.068 526.783C832.068 533.639 830.896 539.527 828.553 544.449C826.268 549.312 823.016 553.385 818.797 556.666C814.637 559.889 809.744 562.467 804.119 564.4L795.77 568.795H754.285L754.109 548.229H784.959C789.588 548.229 793.426 547.408 796.473 545.768C799.52 544.127 801.805 541.842 803.328 538.912C804.91 535.982 805.701 532.584 805.701 528.717C805.701 524.615 804.939 521.07 803.416 518.082C801.893 515.094 799.578 512.809 796.473 511.227C793.367 509.645 789.471 508.854 784.783 508.854H763.426V616.168H737.059V488.199ZM808.602 616.168L779.422 559.127L807.283 558.951L836.814 614.938V616.168H808.602ZM880.408 488.199V616.168H854.129V488.199H880.408ZM928.396 488.199L952.479 532.848L976.561 488.199H1006.71L969.529 551.656L1007.67 616.168H977.264L952.479 570.641L927.693 616.168H897.107L935.34 551.656L898.074 488.199H928.396Z" fill="black"/>
<defs>
<linearGradient id="paint0_linear_706_3625" x1="26.5793" y1="539.672" x2="245.877" y2="543.015" gradientUnits="userSpaceOnUse">
<stop stop-color="#02A5FF"/>
<stop offset="1" stop-color="#00468D"/>
</linearGradient>
</defs>
</svg>
