<svg width="1081" height="1081" viewBox="0 0 1081 1081" fill="none" xmlns="http://www.w3.org/2000/svg">
<circle cx="540.273" cy="540.88" r="540" fill="white"/>
<path d="M550.954 641.732C601.091 578.449 670.506 414.412 677.775 287.85C737.356 270.393 791.335 258.404 843.65 264.224C896.782 383.077 768.773 676.485 682.86 686.45C624.199 693.255 593.825 691.193 550.954 641.732Z" fill="#00478C"/>
<path d="M550.954 641.732C601.091 578.449 670.506 414.412 677.775 287.85C737.356 270.393 791.335 258.404 843.65 264.224C896.782 383.077 768.773 676.485 682.86 686.45C624.199 693.255 593.825 691.193 550.954 641.732Z" fill="url(#paint0_linear_502_3647)"/>
<path d="M550.954 641.732C601.091 578.449 670.506 414.412 677.775 287.85C737.356 270.393 791.335 258.404 843.65 264.224C896.782 383.077 768.773 676.485 682.86 686.45C624.199 693.255 593.825 691.193 550.954 641.732Z" fill="url(#paint1_linear_502_3647)"/>
<path d="M550.954 641.732C601.091 578.449 670.506 414.412 677.775 287.85C737.356 270.393 791.335 258.404 843.65 264.224C896.782 383.077 768.773 676.485 682.86 686.45C624.199 693.255 593.825 691.193 550.954 641.732Z" stroke="#00478C" stroke-width="2"/>
<path d="M348 396.206C348.883 310.671 546.173 303.361 546.173 303.361V253.995C546.173 253.995 735.075 261.291 744.018 343.971C753.435 431.033 546.173 442.872 546.173 442.872V455.594C546.173 455.594 741.3 460.248 744.225 545.158C747.198 631.463 546.173 643.085 546.173 643.085V688.525C546.173 688.525 349.514 678.421 344.723 594.15C339.802 507.586 546.173 501.411 546.173 501.411V491.561C546.173 491.561 347.113 482.16 348 396.206Z" fill="#57BFFC"/>
<path d="M348 396.206C348.883 310.671 546.173 303.361 546.173 303.361V253.995C546.173 253.995 735.075 261.291 744.018 343.971C753.435 431.033 546.173 442.872 546.173 442.872V455.594C546.173 455.594 741.3 460.248 744.225 545.158C747.198 631.463 546.173 643.085 546.173 643.085V688.525C546.173 688.525 349.514 678.421 344.723 594.15C339.802 507.586 546.173 501.411 546.173 501.411V491.561C546.173 491.561 347.113 482.16 348 396.206Z" fill="url(#paint2_linear_502_3647)"/>
<path d="M348 396.206C348.883 310.671 546.173 303.361 546.173 303.361V253.995C546.173 253.995 735.075 261.291 744.018 343.971C753.435 431.033 546.173 442.872 546.173 442.872V455.594C546.173 455.594 741.3 460.248 744.225 545.158C747.198 631.463 546.173 643.085 546.173 643.085V688.525C546.173 688.525 349.514 678.421 344.723 594.15C339.802 507.586 546.173 501.411 546.173 501.411V491.561C546.173 491.561 347.113 482.16 348 396.206Z" fill="url(#paint3_linear_502_3647)"/>
<path d="M348 396.206C348.883 310.671 546.173 303.361 546.173 303.361V253.995C546.173 253.995 735.075 261.291 744.018 343.971C753.435 431.033 546.173 442.872 546.173 442.872V455.594C546.173 455.594 741.3 460.248 744.225 545.158C747.198 631.463 546.173 643.085 546.173 643.085V688.525C546.173 688.525 349.514 678.421 344.723 594.15C339.802 507.586 546.173 501.411 546.173 501.411V491.561C546.173 491.561 347.113 482.16 348 396.206Z" fill="url(#paint4_linear_502_3647)"/>
<path d="M348 396.206C348.883 310.671 546.173 303.361 546.173 303.361V253.995C546.173 253.995 735.075 261.291 744.018 343.971C753.435 431.033 546.173 442.872 546.173 442.872V455.594C546.173 455.594 741.3 460.248 744.225 545.158C747.198 631.463 546.173 643.085 546.173 643.085V688.525C546.173 688.525 349.514 678.421 344.723 594.15C339.802 507.586 546.173 501.411 546.173 501.411V491.561C546.173 491.561 347.113 482.16 348 396.206Z" fill="url(#paint5_linear_502_3647)"/>
<path d="M348 396.206C348.883 310.671 546.173 303.361 546.173 303.361V253.995C546.173 253.995 735.075 261.291 744.018 343.971C753.435 431.033 546.173 442.872 546.173 442.872V455.594C546.173 455.594 741.3 460.248 744.225 545.158C747.198 631.463 546.173 643.085 546.173 643.085V688.525C546.173 688.525 349.514 678.421 344.723 594.15C339.802 507.586 546.173 501.411 546.173 501.411V491.561C546.173 491.561 347.113 482.16 348 396.206Z" fill="url(#paint6_linear_502_3647)"/>
<path d="M348 396.206C348.883 310.671 546.173 303.361 546.173 303.361V253.995C546.173 253.995 735.075 261.291 744.018 343.971C753.435 431.033 546.173 442.872 546.173 442.872V455.594C546.173 455.594 741.3 460.248 744.225 545.158C747.198 631.463 546.173 643.085 546.173 643.085V688.525C546.173 688.525 349.514 678.421 344.723 594.15C339.802 507.586 546.173 501.411 546.173 501.411V491.561C546.173 491.561 347.113 482.16 348 396.206Z" fill="url(#paint7_linear_502_3647)"/>
<path d="M348 396.206C348.883 310.671 546.173 303.361 546.173 303.361V253.995C546.173 253.995 735.075 261.291 744.018 343.971C753.435 431.033 546.173 442.872 546.173 442.872V455.594C546.173 455.594 741.3 460.248 744.225 545.158C747.198 631.463 546.173 643.085 546.173 643.085V688.525C546.173 688.525 349.514 678.421 344.723 594.15C339.802 507.586 546.173 501.411 546.173 501.411V491.561C546.173 491.561 347.113 482.16 348 396.206Z" fill="url(#paint8_linear_502_3647)"/>
<path d="M212.299 261.671C181.258 459.161 328.464 767.928 534.758 860.159C623.577 827.704 711.006 701.764 711.006 701.764C711.006 701.764 575.647 758.784 482.681 598.509C402.769 492.768 374.532 276.71 374.532 276.71C374.532 276.71 271.609 256.667 212.299 261.671Z" fill="#0561BC"/>
<path d="M212.299 261.671C181.258 459.161 328.464 767.928 534.758 860.159C623.577 827.704 711.006 701.764 711.006 701.764C711.006 701.764 575.647 758.784 482.681 598.509C402.769 492.768 374.532 276.71 374.532 276.71C374.532 276.71 271.609 256.667 212.299 261.671Z" fill="url(#paint9_linear_502_3647)"/>
<path d="M212.299 261.671C181.258 459.161 328.464 767.928 534.758 860.159C623.577 827.704 711.006 701.764 711.006 701.764C711.006 701.764 575.647 758.784 482.681 598.509C402.769 492.768 374.532 276.71 374.532 276.71C374.532 276.71 271.609 256.667 212.299 261.671Z" fill="url(#paint10_linear_502_3647)"/>
<path d="M212.299 261.671C181.258 459.161 328.464 767.928 534.758 860.159C623.577 827.704 711.006 701.764 711.006 701.764C711.006 701.764 575.647 758.784 482.681 598.509C402.769 492.768 374.532 276.71 374.532 276.71C374.532 276.71 271.609 256.667 212.299 261.671Z" fill="url(#paint11_linear_502_3647)"/>
<path d="M212.299 261.671C181.258 459.161 328.464 767.928 534.758 860.159C623.577 827.704 711.006 701.764 711.006 701.764C711.006 701.764 575.647 758.784 482.681 598.509C402.769 492.768 374.532 276.71 374.532 276.71C374.532 276.71 271.609 256.667 212.299 261.671Z" fill="url(#paint12_linear_502_3647)"/>
<path d="M212.299 261.671C181.258 459.161 328.464 767.928 534.758 860.159C623.577 827.704 711.006 701.764 711.006 701.764C711.006 701.764 575.647 758.784 482.681 598.509C402.769 492.768 374.532 276.71 374.532 276.71C374.532 276.71 271.609 256.667 212.299 261.671Z" fill="url(#paint13_linear_502_3647)"/>
<path d="M212.299 261.671C181.258 459.161 328.464 767.928 534.758 860.159C623.577 827.704 711.006 701.764 711.006 701.764C711.006 701.764 575.647 758.784 482.681 598.509C402.769 492.768 374.532 276.71 374.532 276.71C374.532 276.71 271.609 256.667 212.299 261.671Z" fill="url(#paint14_linear_502_3647)"/>
<path d="M212.299 261.671C181.258 459.161 328.464 767.928 534.758 860.159C623.577 827.704 711.006 701.764 711.006 701.764C711.006 701.764 575.647 758.784 482.681 598.509C402.769 492.768 374.532 276.71 374.532 276.71C374.532 276.71 271.609 256.667 212.299 261.671Z" fill="url(#paint15_linear_502_3647)"/>
<path d="M212.299 261.671C181.258 459.161 328.464 767.928 534.758 860.159C623.577 827.704 711.006 701.764 711.006 701.764C711.006 701.764 575.647 758.784 482.681 598.509C402.769 492.768 374.532 276.71 374.532 276.71C374.532 276.71 271.609 256.667 212.299 261.671Z" stroke="#00478C" stroke-width="2"/>
<defs>
<linearGradient id="paint0_linear_502_3647" x1="595.8" y1="444.773" x2="827.976" y2="497.638" gradientUnits="userSpaceOnUse">
<stop stop-color="#34465A"/>
<stop offset="1" stop-color="#692440"/>
</linearGradient>
<linearGradient id="paint1_linear_502_3647" x1="595.8" y1="444.773" x2="827.976" y2="497.638" gradientUnits="userSpaceOnUse">
<stop stop-color="#0077B9"/>
<stop offset="1" stop-color="#013162"/>
</linearGradient>
<linearGradient id="paint2_linear_502_3647" x1="344.637" y1="471.26" x2="744.33" y2="471.26" gradientUnits="userSpaceOnUse">
<stop stop-color="#0077B9"/>
<stop offset="1" stop-color="#013162"/>
</linearGradient>
<linearGradient id="paint3_linear_502_3647" x1="344.637" y1="471.26" x2="744.33" y2="471.26" gradientUnits="userSpaceOnUse">
<stop stop-color="#06B6D4"/>
<stop offset="1" stop-color="#FCE4C9"/>
</linearGradient>
<linearGradient id="paint4_linear_502_3647" x1="344.637" y1="471.26" x2="744.33" y2="471.26" gradientUnits="userSpaceOnUse">
<stop stop-color="#F6150D"/>
<stop offset="1" stop-color="#EDCF4A"/>
</linearGradient>
<linearGradient id="paint5_linear_502_3647" x1="344.637" y1="471.26" x2="744.33" y2="471.26" gradientUnits="userSpaceOnUse">
<stop stop-color="#34465A"/>
<stop offset="1" stop-color="#692440"/>
</linearGradient>
<linearGradient id="paint6_linear_502_3647" x1="344.637" y1="471.26" x2="744.33" y2="471.26" gradientUnits="userSpaceOnUse">
<stop stop-color="#FDAAD5"/>
<stop offset="1" stop-color="#0F3199"/>
</linearGradient>
<linearGradient id="paint7_linear_502_3647" x1="344.637" y1="471.26" x2="744.33" y2="471.26" gradientUnits="userSpaceOnUse">
<stop stop-color="#FFC2F3"/>
<stop offset="1" stop-color="white"/>
</linearGradient>
<linearGradient id="paint8_linear_502_3647" x1="344.637" y1="471.26" x2="744.33" y2="471.26" gradientUnits="userSpaceOnUse">
<stop stop-color="#1A89E8"/>
<stop offset="1" stop-color="#FAFAFA"/>
</linearGradient>
<linearGradient id="paint9_linear_502_3647" x1="205.063" y1="558.216" x2="712.75" y2="564.677" gradientUnits="userSpaceOnUse">
<stop stop-color="#37051D"/>
<stop offset="1" stop-color="#85A0F4"/>
</linearGradient>
<linearGradient id="paint10_linear_502_3647" x1="205.063" y1="558.216" x2="712.75" y2="564.677" gradientUnits="userSpaceOnUse">
<stop stop-color="#03AADD"/>
<stop offset="1" stop-color="#ADE1FF"/>
</linearGradient>
<linearGradient id="paint11_linear_502_3647" x1="205.063" y1="558.216" x2="712.75" y2="564.677" gradientUnits="userSpaceOnUse">
<stop stop-color="#002060"/>
<stop offset="1" stop-color="#402060"/>
</linearGradient>
<linearGradient id="paint12_linear_502_3647" x1="205.063" y1="558.216" x2="712.75" y2="564.677" gradientUnits="userSpaceOnUse">
<stop stop-color="#1500FF"/>
<stop offset="1"/>
</linearGradient>
<linearGradient id="paint13_linear_502_3647" x1="205.063" y1="558.216" x2="712.75" y2="564.677" gradientUnits="userSpaceOnUse">
<stop stop-color="#040254"/>
<stop offset="1" stop-color="#43F9E6"/>
</linearGradient>
<linearGradient id="paint14_linear_502_3647" x1="205.063" y1="558.216" x2="712.75" y2="564.677" gradientUnits="userSpaceOnUse">
<stop stop-color="#7E7AF5"/>
<stop offset="1" stop-color="#051B2D"/>
</linearGradient>
<linearGradient id="paint15_linear_502_3647" x1="205.063" y1="558.216" x2="712.75" y2="564.677" gradientUnits="userSpaceOnUse">
<stop stop-color="#0077B9"/>
<stop offset="1" stop-color="#013162"/>
</linearGradient>
</defs>
</svg>
